<svg id="Layer_1" data-name="Layer 1" xmlns="http://www.w3.org/2000/svg" viewBox="0 0 216 216"><defs><style>.cls-1{fill:#fff;stroke:#c9b5a5;stroke-miterlimit:10;stroke-width:6px;}.cls-2{fill:#c9b5a5;}.cls-3{fill:#fefcfc;}</style></defs><circle class="cls-1" cx="108.25" cy="107.99" r="101.37"/><circle class="cls-2" cx="108.25" cy="107.99" r="81.91"/><path class="cls-3" d="M108.23,159.6c.45-.33.76-.44.83-.63,2.76-7.51,8.39-11.82,15.76-14.23,8.79-2.89,16.63-7.39,22.64-14.5,10-11.86,14.87-25.27,10.37-40.78-1.15-3.95-3.6-7.53-5.48-11.27-.24-.49-.85-.86-.93-1.34-.24-1.51-1-3.57-.28-4.47,1.37-1.81,3.39-.58,4.66.63a67.74,67.74,0,0,1,6.7,7.27c5.76,7.38,9.8,15.54,10.86,25,1.24,11-2.61,20.42-9.44,28.75-8.89,10.84-20.45,18-33.5,22.48a39.11,39.11,0,0,0-20.71,16.09,13.22,13.22,0,0,1-1.07,1.19c-1.28-2.18-2.51-4.24-3.71-6.32-3.42-5.92-8.59-9.44-15.08-11.36-7-2.07-14-4-20.72-6.7-9.53-3.81-16.25-10.91-21.2-19.85-8.3-15-6.51-37.53,6.76-50.79,4.41-4.41,10.58-6.41,15.72-4.25-1.25,1.47-2.22,3.13-3.63,4.2-9.31,7-11.33,16.88-10.29,27.54C57.83,120,65.23,130.07,76.94,137a86.64,86.64,0,0,0,14.59,6.86c7.3,2.61,12.56,7.13,15.77,14.12C107.56,158.48,107.9,159,108.23,159.6Z"/><path class="cls-3" d="M108.67,147.17c-3.26-6.77-9.78-8.83-15.58-11.78-7.78-4-16.07-7.24-21.32-14.72a33.05,33.05,0,0,1-4.26-8.73,39.44,39.44,0,0,1-1.19-19.59c.54-2.87,1.54-5.61,4.17-7.32,2-1.3,3.38-.6,3.69,1.79a4.63,4.63,0,0,1,0,.83c-.74,12.6,6.33,20.81,15.65,27.7a60.42,60.42,0,0,0,8.32,5.31,19.63,19.63,0,0,1,9.42,9.91,13.15,13.15,0,0,0,1.62,2.14,27.51,27.51,0,0,0,1.42-2.85c1.92-5.32,5.92-8.78,10.72-11.21,11.07-5.6,18.65-14,21.94-26.07.78-2.89,2.12-5.63,3.4-9a19.73,19.73,0,0,1,4.66,10.59c1.85,13.24-3.61,23.63-13.1,32.19a38.71,38.71,0,0,1-15,8.8C118.78,136.48,113.23,141.33,108.67,147.17Z"/><path class="cls-3" d="M83.27,72.13c2.18,5.48,6.06,8.25,10.16,11.1,5.17,3.59,10.95,6.68,14,13.89C111,88,118.18,84.91,125.18,81.38c3.49-1.76,6.53-4.43,9.77-6.7,1.05-.74,2.06-1.54,3.58-2.68,1.31,9.83.65,18.58-4.65,26.3A23,23,0,0,1,123,106.42c-6,2.34-11.4,5.48-15,11.49-2.69-4.88-7.37-6.93-12-8.84-6.9-2.83-12.29-7.28-15.45-14a21.61,21.61,0,0,1,.59-20.12A26.27,26.27,0,0,1,83.27,72.13Z"/><path class="cls-3" d="M106.59,53.62c1.29-2.38,2.09-4,3-5.58,3.32-5.44,8.68-7.22,14.11-4.74,5.64,2.57,8.4,8,6.23,13.91a41.19,41.19,0,0,1-6,10.61c-2.71,3.52-6.39,6.28-9.2,9.73-2.64,3.24-4.69,7-6.76,10.11-3-4-6-8.5-9.44-12.7A63.61,63.61,0,0,0,92,68.67C86.89,63.92,85.17,58,86.23,51.25c.58-3.71,4.82-7.79,8.52-8.4,4.41-.73,8,1.43,10,6.12C105.37,50.28,105.83,51.64,106.59,53.62Z"/></svg>