<?xml version="1.0" encoding="utf-8"?>
<!-- Generator: Adobe Illustrator 24.2.0, SVG Export Plug-In . SVG Version: 6.00 Build 0)  -->
<svg version="1.1" id="Layer_1" xmlns="http://www.w3.org/2000/svg" xmlns:xlink="http://www.w3.org/1999/xlink" x="0px" y="0px"
	 viewBox="0 0 216 216" style="enable-background:new 0 0 216 216;" xml:space="preserve">
<style type="text/css">
	.st0{fill:#FFFFFF;stroke:#C9B5A5;stroke-width:6;stroke-miterlimit:10;}
	.st1{fill:#C9B5A5;}
	.st2{fill:#FEFCFC;}
</style>
<circle class="st0" cx="108.25" cy="107.99" r="101.37"/>
<circle class="st1" cx="108.25" cy="107.99" r="81.91"/>
<g>
	<path class="st2" d="M108.23,159.6c0.45-0.33,0.76-0.44,0.83-0.63c2.76-7.51,8.39-11.82,15.76-14.23
		c8.79-2.89,16.63-7.39,22.64-14.5c10.03-11.86,14.87-25.27,10.37-40.78c-1.15-3.95-3.6-7.53-5.48-11.27
		c-0.24-0.49-0.85-0.86-0.93-1.34c-0.24-1.51-0.97-3.57-0.28-4.47c1.37-1.81,3.39-0.58,4.66,0.63c2.38,2.27,4.68,4.68,6.7,7.27
		c5.76,7.38,9.8,15.54,10.86,25c1.24,11.04-2.61,20.42-9.44,28.75c-8.89,10.84-20.45,17.97-33.5,22.48
		c-8.9,3.08-15.65,8.35-20.71,16.09c-0.22,0.34-0.55,0.61-1.07,1.19c-1.28-2.18-2.51-4.24-3.71-6.32
		c-3.42-5.92-8.59-9.44-15.08-11.36c-6.96-2.07-14-4.01-20.72-6.7c-9.53-3.81-16.25-10.91-21.2-19.85
		c-8.3-14.98-6.51-37.53,6.76-50.79c4.41-4.41,10.58-6.41,15.72-4.25c-1.25,1.47-2.22,3.13-3.63,4.2
		c-9.31,7.02-11.33,16.88-10.29,27.54c1.34,13.69,8.74,23.81,20.45,30.69c4.62,2.71,9.55,5.06,14.59,6.86
		c7.3,2.61,12.56,7.13,15.77,14.12C107.56,158.48,107.9,159.01,108.23,159.6z"/>
	<path class="st2" d="M108.67,147.17c-3.26-6.77-9.78-8.83-15.58-11.78c-7.78-3.96-16.07-7.24-21.32-14.72
		c-1.84-2.62-3.27-5.67-4.26-8.73c-2.06-6.38-2.43-12.98-1.19-19.59c0.54-2.87,1.54-5.61,4.17-7.32c2-1.3,3.38-0.6,3.69,1.79
		c0.03,0.27,0,0.55-0.02,0.83c-0.74,12.6,6.33,20.81,15.65,27.7c2.64,1.95,5.4,3.82,8.32,5.31c4.36,2.23,7.47,5.46,9.42,9.91
		c0.29,0.67,0.9,1.2,1.62,2.14c0.62-1.22,1.12-2,1.42-2.85c1.92-5.32,5.92-8.78,10.72-11.21c11.07-5.6,18.65-13.95,21.94-26.07
		c0.78-2.89,2.12-5.63,3.4-8.97c2.96,3.48,4.14,6.93,4.66,10.59c1.85,13.24-3.61,23.63-13.1,32.19c-4.35,3.92-9.24,7.1-15.04,8.8
		C118.78,136.48,113.23,141.33,108.67,147.17z"/>
	<path class="st2" d="M83.27,72.13c2.18,5.48,6.06,8.25,10.16,11.1c5.17,3.59,10.95,6.68,14,13.89
		c3.52-9.15,10.75-12.21,17.75-15.74c3.49-1.76,6.53-4.43,9.77-6.7c1.05-0.74,2.06-1.54,3.58-2.68c1.31,9.83,0.65,18.58-4.65,26.3
		c-2.61,3.81-6.5,6.39-10.92,8.12c-5.96,2.34-11.4,5.48-14.98,11.49c-2.69-4.88-7.37-6.93-12.02-8.84
		c-6.9-2.83-12.29-7.28-15.45-14.03c-3.15-6.72-2.89-13.52,0.59-20.12C81.53,74.12,82.24,73.45,83.27,72.13z"/>
	<path class="st2" d="M106.59,53.62c1.29-2.38,2.09-4.02,3.04-5.58c3.32-5.44,8.68-7.22,14.11-4.74c5.64,2.57,8.4,8.03,6.23,13.91
		c-1.39,3.78-3.57,7.4-6.03,10.61c-2.71,3.52-6.39,6.28-9.2,9.73c-2.64,3.24-4.69,6.97-6.76,10.11c-2.97-4.04-6.04-8.5-9.44-12.7
		c-1.89-2.33-4.3-4.24-6.52-6.29c-5.13-4.75-6.85-10.65-5.79-17.42c0.58-3.71,4.82-7.79,8.52-8.4c4.41-0.73,7.98,1.43,10.04,6.12
		C105.37,50.28,105.83,51.64,106.59,53.62z"/>
</g>
</svg>
