<svg id="Layer_1" data-name="Layer 1" xmlns="http://www.w3.org/2000/svg" viewBox="0 0 200.42 231.84"><defs><style>.cls-1{fill:#ccae96;}.cls-2{fill:none;stroke:#c9b5a5;stroke-miterlimit:10;stroke-width:6px;}.cls-3{fill:#c9b5a5;}.cls-4,.cls-5{font-size:31.16px;fill:#fff;letter-spacing:0.1em;}.cls-4{font-family:AmericanTypewriter-Light, American Typewriter;font-weight:300;}.cls-5{font-family:AmericanTypewriter, American Typewriter;}</style></defs><rect class="cls-1" y="174.2" width="200.42" height="57.64"/><circle class="cls-2" cx="100.21" cy="75.38" r="72.38"/><path class="cls-3" d="M100.21,24A58.49,58.49,0,1,0,158.7,82.45,58.48,58.48,0,0,0,100.21,24Zm-15.72,18c.42-2.66,3.45-5.57,6.09-6,3.15-.52,5.69,1,7.17,4.36.41.94.74,1.91,1.28,3.33.92-1.7,1.49-2.88,2.17-4,2.37-3.89,6.2-5.16,10.08-3.39,4,1.84,6,5.74,4.44,9.93a29,29,0,0,1-4.3,7.57c-1.94,2.52-4.57,4.49-6.57,7A84.89,84.89,0,0,0,100,67.93c-2.12-2.88-4.31-6.07-6.74-9.06a44.9,44.9,0,0,0-4.65-4.49A13.22,13.22,0,0,1,84.49,41.94Zm-3.66,16.9a16.41,16.41,0,0,1,1.55-2c1.55,3.91,4.32,5.89,7.25,7.92,3.69,2.57,7.82,4.78,10,9.92,2.52-6.53,7.68-8.71,12.67-11.23,2.5-1.26,4.67-3.17,7-4.79.75-.53,1.46-1.1,2.55-1.91.93,7,.46,13.26-3.32,18.78a16.48,16.48,0,0,1-7.79,5.8c-4.26,1.67-8.15,3.91-10.7,8.2-1.92-3.49-5.26-5-8.58-6.31a19.86,19.86,0,0,1-11-10A15.42,15.42,0,0,1,80.83,58.84Zm-4.94,8.49a2.92,2.92,0,0,1,0,.59c-.53,9,4.52,14.86,11.17,19.77A43.65,43.65,0,0,0,93,91.49a14,14,0,0,1,6.73,7.08,10.05,10.05,0,0,0,1.15,1.52,20.16,20.16,0,0,0,1-2c1.37-3.8,4.23-6.27,7.65-8,7.9-4,13.32-10,15.67-18.62.56-2.06,1.51-4,2.43-6.41A14,14,0,0,1,131,72.6c1.32,9.45-2.57,16.87-9.35,23a27.69,27.69,0,0,1-10.74,6.29c-3.14.92-7.1,4.38-10.35,8.55-2.33-4.83-7-6.3-11.13-8.41-5.56-2.83-11.47-5.17-15.22-10.51a23.24,23.24,0,0,1-3-6.23,28.13,28.13,0,0,1-.85-14c.38-2.06,1.1-4,3-5.23C74.69,65.12,75.68,65.62,75.89,67.33ZM140,101c-6.35,7.75-14.6,12.84-23.92,16.06a27.88,27.88,0,0,0-14.79,11.49,10,10,0,0,1-.77.85c-.91-1.56-1.79-3-2.64-4.51a17.57,17.57,0,0,0-10.77-8.12c-5-1.48-10-2.86-14.79-4.78-6.81-2.72-11.61-7.79-15.14-14.17-5.92-10.7-4.65-26.8,4.83-36.27,3.15-3.15,7.55-4.57,11.22-3a18.72,18.72,0,0,1-2.59,3c-6.65,5-8.09,12.06-7.35,19.66,1,9.78,6.24,17,14.6,21.91A61.87,61.87,0,0,0,88.27,108a18.59,18.59,0,0,1,11.26,10.08c.19.41.44.79.67,1.21.32-.24.54-.31.59-.45,2-5.36,6-8.44,11.26-10.16,6.27-2.06,11.87-5.28,16.17-10.36,7.16-8.47,10.62-18,7.4-29.12-.82-2.82-2.58-5.37-3.92-8-.17-.35-.61-.62-.66-1-.17-1.08-.7-2.55-.2-3.19,1-1.29,2.42-.42,3.33.45A48.81,48.81,0,0,1,139,62.65c4.11,5.27,7,11.1,7.76,17.85C147.59,88.38,144.85,95.08,140,101Z" transform="translate(0 -7.07)"/><text class="cls-4" transform="translate(16.99 212.43)">Lattérian</text><rect class="cls-3" y="174.2" width="200.42" height="57.64"/><text class="cls-5" transform="translate(15.6 212.43)">Lattérian</text></svg>